<svg xmlns="http://www.w3.org/2000/svg" xmlns:xlink="http://www.w3.org/1999/xlink" version="1.1" x="0px" y="0px" viewBox="26 -26 100 100" style="enable-background:new 26 -26 100 100;" xml:space="preserve"><path d="M120.5,2.4c0,1.2-0.1,2.4-0.5,3.6c-0.5,2-1.3,3.8-2.3,5.4L99.8,50.6c-2.4,6.7-6.1,11.6-12.8,9.1s-6.4-8.5-4-15.3l4.9-18.1  C88.5,23,89.3,16,87.1,9.1c-1-2.2-1.6-4.7-1.6-7.4c0-9.7,7.8-17.5,17.5-17.5S120.5-8,120.5,1.7C120.5,2.1,120.5,2.3,120.5,2.4z   M70,6.1c-0.5,2-1.3,3.8-2.3,5.4L49.8,50.7c-2.4,6.7-6.1,11.6-12.8,9.1s-6.4-8.5-4-15.3l4.9-18.1c0.6-3.3,1.4-10.3-0.8-17.2  c-1-2.2-1.6-4.7-1.6-7.4c0-9.7,7.8-17.5,17.5-17.5S70.5-7.9,70.5,1.8c0,0.1,0,0.3,0,0.4C70.5,3.6,70.3,4.9,70,6.1z" fill="#ffffff" /></svg>
